<svg width="128" height="23" viewBox="0 0 128 23" fill="none" xmlns="http://www.w3.org/2000/svg">
<g clip-path="url(#clip0_20808_2)">
<path d="M20.99 0.820068L10.94 11.9201L0.890024 0.820068H0.650024V22.0001H4.64002V10.6601L10.79 17.2901H11.06L17.27 10.6601V22.0001H21.26V0.820068H20.99Z" fill="#121212"/>
<path d="M23.6563 18.1902V22.0002H37.6063V18.1902H23.6563ZM36.4963 9.61012H23.6563V13.4202H36.4963V9.61012ZM37.4263 1.00012H23.6563V4.84012H37.4263V1.00012Z" fill="#121212"/>
<path d="M38.7634 1.00012V4.84012H54.0634V1.00012H38.7634ZM44.4334 22.0002H48.4234V7.96012H44.4334V22.0002Z" fill="#121212"/>
<path d="M63.4935 1.00012H55.7235V4.84012H63.4035C65.4135 4.84012 66.6735 6.10012 66.6735 7.90012C66.6735 9.70012 65.4135 10.9902 63.4035 10.9902H55.7235V22.0002H59.7135V14.8002H63.4935C68.1735 14.8002 70.7835 11.7402 70.7835 7.90012C70.7835 4.06012 68.1735 1.00012 63.4935 1.00012Z" fill="#121212"/>
<path d="M76.4209 1.00007H72.4309V22.2401H72.7009L84.6109 10.2401V22.0001H88.6009V0.820068H88.3309L76.4209 12.7901V1.00007Z" fill="#121212"/>
<path d="M102.833 22.0002H107.813L101.033 11.3502L107.363 1.00012H102.983L97.4633 9.58012H95.0033V1.00012H91.0133V22.0002H95.0033V13.3902H97.5533L102.833 22.0002Z" fill="#121212"/>
<path d="M119.859 1.00012H115.779L108.099 22.0002H112.629L117.819 7.00012L123.009 22.0002H127.539L119.859 1.00012Z" fill="#121212"/>
</g>
<defs>
<clipPath id="clip0_20808_2">
<rect width="128" height="23" fill="white"/>
</clipPath>
</defs>
</svg>
